# xmcd
#
# Track frame offsets:
# 150
# 11656
# 21720
# 31635
# 41701
# 51045
# 63577
# 75547
# 85403
# 97313
# 108923
# 120961
# 131227
# 139350
# 153860
# 164866
# 176787
# 187915
# 199783
# 213304
# 224841
# 236040
# 249091
# 260761
# 271414
# 282769
# 294935
# 306808
#
# Disc length: 4252 seconds
#
# Revision: 0
# Processed by: cddbd v1.5.2PL0 Copyright (c) Steve Scherf et al.
# Submitted via: Axialis_AX_CDPlayer 2.6
#
DISCID=a6109a1c
DTITLE=Billy Lamont and Chuck Edwards - Billy Lamont Meets Chuck Edwards
DYEAR=1900
DGENRE=
TTITLE0=Billy Lamont Meets Chuck Edwards - Billy Lamont
TTITLE1=I'm So Sorry - Billy Lamont
TTITLE2=Tom Cat - Billy Lamont
TTITLE3=Millie - Billy Lamont
TTITLE4=Country Boy - Billy Lamont
TTITLE5=Can't Make It By Myself - Billy Lamont and Gibralters
TTITLE6=Now Darling - Billy Lamont and Gibralters
TTITLE7=I'm Gonna Try - Billy Lamont
TTITLE8=So-called Friend - Billy Lamont
TTITLE9=(Darlin') Please Come Home - Billy Lamont
TTITLE10=Come On Right Now - Billy Lamont and Gibralters
TTITLE11=Hear Me Now - Billy Lamont
TTITLE12=Right Kind Of Gal - Billy Lamont
TTITLE13=Please Don't Leave - Billy Lamont with Jimi Hendrix, guitar
TTITLE14=Sweet Thing - Billy Lamont with Jimi Hendrix, guitar
TTITLE15=I Got Loose - Chuck Edwards
TTITLE16=Bong Gong - Chuck Edwards, instrumental
TTITLE17=She Carried Me All Over Town - Chuck Edwards
TTITLE18=Just For A Day - Chuck Edwards
TTITLE19=You Move Me - Chuck Edwards
TTITLE20=If You Love Me (like you say you do) - Chuck Edwards and Vocal Group
TTITLE21=Let's Rock And Roll (to Auld Lang Syne) - Chuck Edwards
TTITLE22=I'm Wondering - Chuck Edwards and Vocal Group
TTITLE23=Morning Train - Chuck Edwards
TTITLE24=Warm My Heart - Chuck Edwards and Vocal Group
TTITLE25=Lucy And Jimmy Got Married - Chuck Edwards and Vocal Group
TTITLE26=If I Were King - Chuck Edwards and Five Crowns
TTITLE27=Harlem Rug Cutters - Sonny Thompson Band with  Chuck Edwards, guita
TTITLE27=r
EXTD=Official 5678, 50's and 60's Rhythm and Blues masters.
EXTT0=
EXTT1=
EXTT2=
EXTT3=
EXTT4=
EXTT5=
EXTT6=
EXTT7=
EXTT8=
EXTT9=
EXTT10=
EXTT11=
EXTT12=
EXTT13=
EXTT14=
EXTT15=
EXTT16=
EXTT17=
EXTT18=
EXTT19=
EXTT20=
EXTT21=
EXTT22=
EXTT23=
EXTT24=
EXTT25=
EXTT26=
EXTT27=Tracks 5, 6, 7, and 8  have Little Richard's Upsetters as backing band.
PLAYORDER=
